<?xml version="1.0" standalone="no"?>
<!DOCTYPE svg PUBLIC "-//W3C//DTD SVG 20010904//EN"
 "http://www.w3.org/TR/2001/REC-SVG-20010904/DTD/svg10.dtd">
<svg version="1.0" xmlns="http://www.w3.org/2000/svg"
 width="339.000000pt" height="164.000000pt" viewBox="0 0 339.000000 164.000000"
 preserveAspectRatio="xMidYMid meet">

<g transform="translate(0.000000,164.000000) scale(0.100000,-0.100000)"
fill="#000000" stroke="none">
<path d="M1389 1463 c-15 -9 -34 -30 -42 -47 l-16 -31 0 27 c-2 65 -25 76 -47
22 -12 -28 -13 -43 -5 -67 18 -49 12 -65 -10 -24 -21 40 -33 46 -43 21 -12
-32 -6 -84 13 -103 12 -12 17 -27 14 -40 -5 -19 -7 -18 -30 9 -33 39 -43 38
-43 -6 0 -26 8 -43 29 -64 16 -16 32 -41 35 -56 l7 -26 -27 21 c-15 12 -35 21
-45 21 -40 0 20 -93 65 -102 10 -1 23 -13 27 -26 8 -20 7 -21 -12 -12 -11 6
-32 10 -47 8 l-27 -3 38 -39 c29 -30 43 -37 62 -33 18 3 29 -1 36 -14 9 -17 6
-19 -31 -19 -47 0 -50 -10 -13 -40 20 -16 39 -21 70 -19 31 2 48 -2 61 -15 15
-15 15 -16 1 -11 -9 3 -34 -1 -55 -10 l-39 -16 35 -19 c40 -22 82 -25 111 -9
11 5 29 7 41 3 21 -6 21 -7 2 -16 -10 -6 -30 -17 -44 -26 -23 -15 -23 -16 -5
-23 38 -15 91 -10 109 10 10 11 25 17 33 14 11 -4 6 -10 -16 -19 -17 -7 -31
-18 -31 -23 0 -6 19 -1 43 9 53 24 64 25 110 1 20 -10 37 -15 37 -10 0 5 -11
14 -25 21 -13 6 -22 15 -19 20 3 4 17 -1 31 -12 26 -20 72 -25 106 -11 18 6
18 7 0 22 -10 9 -27 21 -37 26 -19 10 -19 11 2 17 12 4 30 2 41 -3 11 -6 29
-11 41 -11 26 0 90 29 90 40 0 13 -68 32 -82 24 -7 -4 -5 2 5 14 15 16 24 19
43 12 27 -11 46 -5 87 22 35 25 26 38 -25 38 -35 0 -39 2 -28 15 7 8 22 15 34
15 29 1 60 20 87 54 l23 29 -46 -5 c-39 -5 -45 -3 -41 11 2 10 19 21 36 27 23
6 37 20 51 47 10 21 15 41 12 44 -3 4 -22 -1 -41 -10 -35 -17 -35 -17 -35 7 0
16 7 27 20 31 24 8 35 27 44 78 8 44 -4 48 -40 12 -14 -14 -27 -25 -29 -25
-10 0 -5 39 6 45 18 12 28 52 22 90 -7 42 -22 41 -44 -3 -11 -21 -19 -28 -22
-19 -3 8 -1 20 4 28 19 31 0 124 -25 116 -5 -2 -15 -19 -22 -38 -7 -19 -13
-27 -13 -18 -1 24 -43 58 -80 65 l-33 7 15 -30 c19 -36 37 -52 74 -63 l28 -8
-30 -2 c-16 -1 -39 -5 -49 -9 -17 -7 -16 -10 13 -30 24 -18 41 -22 66 -18 23
4 35 1 39 -8 4 -11 -5 -13 -47 -8 l-52 6 34 -36 c22 -23 45 -37 65 -39 20 -2
32 -9 34 -21 4 -17 2 -17 -27 -3 -16 9 -37 16 -46 16 -28 0 19 -76 55 -88 31
-11 35 -18 22 -40 -6 -9 -14 -6 -32 13 -34 36 -43 31 -37 -17 4 -29 14 -50 30
-63 18 -14 23 -25 18 -39 -6 -16 -10 -14 -27 19 -11 21 -26 41 -32 43 -19 6
-15 -89 4 -117 15 -21 15 -24 0 -39 -15 -15 -16 -15 -16 5 0 26 -20 73 -31 73
-5 0 -14 -18 -20 -41 -10 -31 -10 -48 -1 -71 10 -27 9 -33 -6 -44 -15 -11 -18
-8 -22 31 -8 58 -14 62 -40 25 -15 -22 -21 -42 -19 -71 2 -27 -1 -43 -11 -49
-24 -15 -32 -11 -20 9 5 11 10 34 10 51 0 30 0 30 -26 14 -28 -19 -54 -63 -54
-92 0 -22 -18 -32 -55 -32 -41 0 -55 11 -55 41 0 38 -53 100 -71 82 -10 -10
-9 -21 3 -52 16 -40 16 -40 -6 -30 -19 9 -22 18 -22 57 1 31 -6 57 -18 76 -18
26 -21 27 -33 10 -7 -10 -13 -34 -13 -53 0 -33 -1 -34 -17 -19 -14 14 -15 22
-5 43 13 28 1 98 -18 110 -13 8 -43 -62 -35 -84 3 -9 -3 -5 -14 9 -19 24 -19
25 0 48 19 25 23 62 10 96 -7 17 -9 17 -29 -9 -12 -15 -22 -35 -23 -44 0 -12
-3 -10 -11 6 -9 18 -6 26 15 45 15 13 29 39 33 61 8 46 -6 48 -47 8 l-29 -29
0 28 c0 22 5 29 22 32 20 3 68 59 68 79 0 14 -34 10 -58 -7 -21 -14 -22 -14
-22 5 0 17 6 21 33 21 23 0 41 8 60 28 15 15 27 31 27 35 0 11 -59 8 -81 -4
-18 -9 -19 -8 -10 9 8 14 17 18 37 14 27 -5 94 23 94 39 0 12 -46 22 -70 16
-11 -3 -18 -2 -15 3 2 4 18 10 35 13 27 6 70 54 70 80 0 12 -34 7 -61 -10z
m-32 -109 c-3 -3 -12 -4 -19 -1 -8 3 -5 6 6 6 11 1 17 -2 13 -5z"/>
<path d="M1609 1412 c-17 -14 -22 -28 -21 -57 2 -38 43 -115 62 -115 19 0 60
77 62 115 1 41 -27 75 -62 75 -10 0 -28 -8 -41 -18z m75 -18 c23 -23 20 -51
-9 -70 -23 -15 -27 -15 -50 0 -14 9 -25 25 -25 36 0 24 26 50 50 50 10 0 26
-7 34 -16z"/>
<path d="M1525 1191 l-60 -18 0 -39 c0 -31 4 -39 20 -42 11 -3 24 -10 28 -18
9 -16 43 -19 52 -4 9 14 161 12 185 -2 16 -10 24 -10 40 0 11 6 27 12 35 12 9
0 15 9 15 24 0 21 -9 28 -55 45 -31 12 -66 28 -79 36 -37 24 -113 27 -181 6z
m55 -16 c0 -9 -9 -15 -25 -15 -31 0 -33 17 -2 23 12 2 23 5 25 6 1 0 2 -6 2
-14z m105 0 c30 -13 29 -13 -27 -14 -45 -1 -58 2 -58 14 0 19 44 19 85 0z"/>






</g>
</svg>
